PathFileType	4	(X/Y/Z)	C:\Users\xlb\Desktop\20210112\20210112\bx_n_10_902.trc
DataRate	CameraRate	NumFrames	NumMarkers	Units	OrigDataRate	OrigDataStartFrame	OrigNumFrames
50.00	50.00	       7	43	mm	50.00	364	       484
Frame#	Time	Top.Head			R.Acromium			L.Acromium			Sternum			R.ASIS			L.ASIS			V.Sacral			R.Thigh.Upper			R.Thigh.Front			R.Thigh.Rear			R.Knee.Lat			R.Knee.Med			R.Shank.Upper			R.Shank.Front			R.Shank.Rear			R.Ankle.Lat			R.Midfoot.Lat			R.Toe.Lat			R.Toe.Tip			R.Toe.Med			R.Ankle.Med			R.Midfoot.Sup			R.Heel			L.Thigh.Upper			L.Thigh.Front			L.Thigh.Rear			L.Knee.Lat			L.Knee.Med			L.Shank.Upper			L.Shank.Front			L.Shank.Rear			L.Ankle.Lat			L.Midfoot.Lat			L.Toe.Lat			L.Toe.Tip			L.Toe.Med			L.Ankle.Med			L.Midfoot.Sup			L.Heel			origin1 front left			origin2 front right			origin 3 back right			origin 4 back leftt			
		X1	Y1	Z1	X2	Y2	Z2	X3	Y3	Z3	X4	Y4	Z4	X5	Y5	Z5	X6	Y6	Z6	X7	Y7	Z7	X8	Y8	Z8	X9	Y9	Z9	X10	Y10	Z10	X11	Y11	Z11	X12	Y12	Z12	X13	Y13	Z13	X14	Y14	Z14	X15	Y15	Z15	X16	Y16	Z16	X17	Y17	Z17	X18	Y18	Z18	X19	Y19	Z19	X20	Y20	Z20	X21	Y21	Z21	X22	Y22	Z22	X23	Y23	Z23	X24	Y24	Z24	X25	Y25	Z25	X26	Y26	Z26	X27	Y27	Z27	X28	Y28	Z28	X29	Y29	Z29	X30	Y30	Z30	X31	Y31	Z31	X32	Y32	Z32	X33	Y33	Z33	X34	Y34	Z34	X35	Y35	Z35	X36	Y36	Z36	X37	Y37	Z37	X38	Y38	Z38	X39	Y39	Z39	X40	Y40	Z40	X41	Y41	Z41	X42	Y42	Z42	X43	Y43	Z43	

364	7.260	-138.88354	113.49867	1315.88574	-338.30115	-50.79790	1121.23389	-364.43060	266.88876	1139.06616	-504.65253	98.87937	1017.61829	-754.42584	-8.56569	991.11835	-765.12994	234.20987	1010.87476	-933.10999	82.44884	1093.48083	-834.91724	-77.43594	862.11517	-751.18286	-8.62068	800.35522	-833.57660	-71.74030	745.24817	-820.71216	-43.32841	607.76874	-802.70691	66.61539	563.97284	-818.49780	-40.90622	558.08490	-758.46326	11.13435	523.70056	-837.90881	-54.46756	470.03979	-761.34674	-21.66815	201.79338	-647.29785	-66.73746	162.62610	-605.93951	-75.01893	156.71490	-549.37061	-27.68417	163.41367	-597.02625	27.12202	166.99522	-725.31195	65.82487	220.39380	-671.47351	52.57655	163.13632	-791.95752	37.82357	171.05084	-869.24500	279.06909	866.32874	-759.33612	207.55460	812.06122	-847.86780	275.80246	730.36414	-851.72150	253.21536	626.77618	-801.76654	146.23239	567.10846	-836.29517	249.38878	563.34930	-773.88464	207.22589	536.48590	-855.13544	263.17828	484.18521	-773.02191	232.95479	201.84689	-658.53253	299.45920	156.87523	-622.13879	305.88080	157.38071	-557.01434	253.57092	163.40715	-593.43878	219.41805	173.99652	-721.41119	159.68597	223.51810	-676.29626	176.79097	163.91045	-799.04944	184.98967	179.77989	-527.87323	303.99524	146.41977	-517.90442	-72.74139	142.86679	-875.87854	-78.58119	141.27632	-882.62360	295.84265	144.46759	
365	7.280	-147.73859	112.83952	1342.96838	-342.41229	-51.97949	1140.34277	-367.89874	267.48148	1157.58618	-505.00522	98.83475	1027.01160	-751.89844	-8.90594	993.80707	-763.83429	233.59312	1013.48663	-932.88721	81.20312	1092.69385	-832.27765	-78.32223	862.64154	-748.62262	-9.64993	800.59430	-831.36017	-72.47769	745.57269	-818.91925	-43.91689	607.83496	-800.98523	65.89882	564.14520	-816.85565	-41.55672	558.32452	-756.90045	10.35869	523.75452	-836.64331	-55.06821	470.27713	-761.30798	-21.81652	201.68526	-647.38062	-66.96013	162.60362	-605.95123	-75.18826	156.73386	-549.33490	-27.70218	163.34654	-596.96521	27.00425	167.01747	-725.32202	65.80412	220.44089	-671.28198	52.62725	163.27333	-791.95190	37.70571	171.01289	-867.64252	278.10019	866.80756	-757.22711	207.81891	812.59460	-846.60834	275.00684	730.89172	-850.41351	252.58421	627.24719	-800.14520	145.25476	567.67468	-835.13647	249.04259	563.73492	-772.72015	207.05598	536.61652	-854.21094	262.69931	484.53979	-773.01648	232.95001	201.84621	-658.58600	299.52133	156.83109	-622.16266	305.95428	157.35640	-557.02228	253.63983	163.52298	-593.53827	219.50536	174.05925	-721.22540	159.71703	223.33238	-676.21893	176.74257	163.95956	-798.92877	185.06035	179.78554	-527.85596	304.01050	146.48270	-517.85986	-72.74453	142.88385	-875.84583	-78.58064	141.24570	-882.59283	295.88205	144.49619	
366	7.300	-157.60620	112.12130	1370.26367	-346.83545	-53.57616	1159.74475	-371.82748	268.07034	1176.23706	-505.40125	98.76330	1036.74207	-749.11572	-9.61714	996.66962	-762.30780	232.88536	1016.10394	-932.31317	79.98705	1091.88123	-829.32629	-79.34911	863.22943	-745.97351	-10.88007	800.84668	-828.91943	-73.29431	745.96582	-816.92731	-44.49249	607.98218	-799.02039	65.22403	564.39911	-815.03052	-42.16534	558.58618	-755.08777	9.60372	523.92279	-835.23260	-55.61341	470.61096	-761.24548	-21.95065	201.62468	-647.44238	-67.10131	162.57677	-605.96130	-75.28079	156.71123	-549.30994	-27.69830	163.28271	-596.90674	26.95468	166.99924	-725.30017	65.84559	220.55548	-671.13330	52.69234	163.44608	-791.93243	37.61726	171.00571	-865.82764	277.11337	867.23206	-754.86646	207.98209	813.17548	-845.12219	274.11893	731.44220	-848.92065	251.84859	627.73657	-798.43127	144.19385	568.29205	-833.80066	248.54071	564.13214	-771.33081	206.75394	536.73474	-853.16064	262.04456	484.89975	-772.99054	232.84215	201.80788	-658.58490	299.51263	156.85156	-622.22040	305.99258	157.33066	-557.01917	253.68558	163.67635	-593.65436	219.59145	174.13724	-721.02020	159.68201	223.09277	-676.09210	176.63599	164.00584	-798.79822	185.05272	179.77045	-527.85345	303.97192	146.51968	-517.80560	-72.75666	142.89310	-875.83881	-78.59639	141.24371	-882.57623	295.91617	144.53041	
367	7.320	-168.50702	111.43167	1397.61475	-351.61176	-55.56825	1179.29028	-376.14581	268.60541	1194.91956	-505.84097	98.66448	1046.81152	-746.11804	-10.51424	999.62592	-760.55798	232.14743	1018.73822	-931.48627	78.86333	1091.07739	-826.00977	-80.44164	863.91937	-743.22009	-12.21261	801.15521	-826.19739	-74.05766	746.44641	-814.72119	-45.08047	608.31641	-796.84332	64.56205	564.75110	-813.02649	-42.75534	558.87762	-753.10260	8.88802	524.20398	-833.67291	-56.19360	471.06342	-761.16193	-22.09646	201.61662	-647.48157	-67.17377	162.50740	-605.95502	-75.29733	156.63933	-549.26050	-27.69742	163.24721	-596.87775	26.91711	166.97690	-725.22266	65.94924	220.77057	-671.07281	52.73382	163.58777	-791.89423	37.52250	171.01807	-863.71167	276.08359	867.64038	-752.24377	207.90555	813.82343	-843.30829	273.12634	732.01318	-847.20068	251.14117	628.30219	-796.62091	143.29726	568.81183	-832.27185	248.00908	564.55212	-769.76501	206.41068	536.82538	-851.98407	261.39349	485.31256	-772.94165	232.69345	201.77353	-658.53638	299.44650	156.91463	-622.29272	306.00458	157.30151	-557.04102	253.72357	163.80162	-593.71307	219.67528	174.21022	-720.83789	159.61047	222.87543	-675.96130	176.51717	164.02415	-798.69226	184.98053	179.74234	-527.85870	303.92401	146.52269	-517.75177	-72.77509	142.90828	-875.85114	-78.60184	141.24825	-882.56885	295.92508	144.55052	
368	7.340	-180.42480	110.81414	1424.84509	-356.76627	-57.73749	1198.83521	-380.83746	269.01804	1213.62134	-506.32529	98.53775	1057.22107	-742.94446	-11.40621	1002.58612	-758.60266	231.43237	1021.39252	-930.49396	77.79447	1090.32361	-822.40271	-81.45270	864.67200	-740.34326	-13.54203	801.52557	-823.22791	-74.61937	746.93433	-812.38507	-45.66727	608.79510	-794.58221	63.87560	565.13959	-810.92926	-43.35630	559.20673	-751.08295	8.18785	524.46674	-832.04669	-56.84953	471.58694	-761.08038	-22.24264	201.63556	-647.49744	-67.19797	162.37189	-605.93372	-75.26975	156.52559	-549.18530	-27.70191	163.24153	-596.86285	26.83957	166.99355	-725.09088	66.06461	221.03017	-671.07739	52.73590	163.65611	-791.83435	37.42482	171.05170	-861.19379	275.03860	868.12042	-749.37109	207.51198	814.51483	-841.11511	272.08936	732.62012	-845.21771	250.51530	628.96472	-794.70288	142.66344	569.20886	-830.56403	247.53450	565.02008	-768.07312	206.09871	536.92255	-850.65820	260.89304	485.80121	-772.85089	232.57639	201.77197	-658.45795	299.35321	156.99139	-622.34601	306.01129	157.28490	-557.10535	253.79131	163.87138	-593.66138	219.76755	174.25844	-720.68329	159.54797	222.73344	-675.87976	176.41399	164.00313	-798.63013	184.88240	179.72346	-527.86493	303.90637	146.50870	-517.69116	-72.80364	142.94093	-875.86450	-78.59624	141.23715	-882.56781	295.91959	144.55791	
369	7.360	-193.28061	110.24330	1451.76733	-362.30841	-59.73982	1218.18774	-385.93652	269.27075	1232.35400	-506.85617	98.38216	1067.97278	-739.65198	-12.21861	1005.47400	-756.46381	230.75998	1024.07324	-929.32013	76.67992	1089.63818	-818.67639	-82.27409	865.40906	-737.31067	-14.81829	801.92413	-820.09583	-74.95622	747.32214	-810.04706	-46.25430	609.28351	-792.37604	63.18257	565.51105	-808.84253	-43.97960	559.56042	-749.12158	7.48983	524.60339	-830.44012	-57.51735	472.09314	-761.01941	-22.34657	201.65076	-647.50415	-67.21082	162.20245	-605.91119	-75.24606	156.39044	-549.09558	-27.70987	163.25775	-596.81903	26.71224	167.07596	-724.93402	66.11411	221.21071	-671.09283	52.71732	163.67627	-791.76447	37.34191	171.11159	-858.26178	274.02667	868.70953	-746.29028	206.85248	815.18933	-838.59241	271.08710	733.32245	-842.99121	249.93419	629.68219	-792.68542	142.24754	569.52081	-828.71863	247.11971	565.55573	-766.28308	205.77487	537.07129	-849.16412	260.57568	486.37183	-772.70410	232.51956	201.80571	-658.37640	299.26447	157.07066	-622.36151	306.03732	157.29416	-557.16083	253.88795	163.90253	-593.52899	219.86269	174.27229	-720.52863	159.53026	222.66333	-675.87372	176.35229	163.94157	-798.60992	184.77603	179.73216	-527.87079	303.92206	146.48926	-517.62231	-72.85130	142.97411	-875.86407	-78.59275	141.20242	-882.57434	295.93250	144.57755	
370	7.380	-206.95309	109.65393	1478.19922	-368.23532	-61.31630	1237.16357	-391.46075	269.43964	1251.14844	-507.43750	98.19571	1079.07190	-736.30194	-13.00331	1008.29163	-754.14941	230.13417	1026.78101	-927.89636	75.44501	1088.99878	-815.00092	-82.94074	866.07544	-734.06451	-16.00479	802.33368	-816.90570	-75.20811	747.59387	-807.79633	-46.84130	609.67389	-790.24536	62.55189	565.86719	-806.80231	-44.59145	559.91675	-747.21997	6.84060	524.61975	-828.89685	-58.09642	472.55377	-760.98340	-22.37995	201.65625	-647.52966	-67.26021	162.05679	-605.90112	-75.26682	156.26628	-549.00018	-27.73454	163.28053	-596.73700	26.55886	167.21141	-724.76917	66.06581	221.25665	-671.08075	52.69797	163.69458	-791.73157	37.27171	171.19141	-855.04218	273.04489	869.37781	-743.05408	206.09344	815.80151	-835.87451	270.15988	734.15717	-840.61121	249.33829	630.39386	-790.61243	141.93663	569.77795	-826.75958	246.71260	566.14966	-764.41266	205.35413	537.26788	-847.54156	260.35092	487.01419	-772.51593	232.49734	201.85622	-658.32025	299.20300	157.14732	-622.35284	306.09100	157.32965	-557.16461	253.98660	163.92589	-593.40753	219.93781	174.26132	-720.34064	159.55096	222.62280	-675.91724	176.35730	163.86124	-798.60767	184.66423	179.78046	-527.88806	303.96085	146.46745	-517.57849	-72.92434	142.96997	-875.85144	-78.58924	141.16275	-882.58557	295.97446	144.62392	
